<svg xmlns="http://www.w3.org/2000/svg" version="1.1" xmlns:xlink="http://www.w3.org/1999/xlink" width="1000" height="1000"><g clip-path="url(#SvgjsClipPath1027)"><rect width="1000" height="1000" fill="#ffffff"></rect><g transform="matrix(0.47375402690922874,0,0,0.47375402690922874,176.82395300360054,150)"><svg xmlns="http://www.w3.org/2000/svg" version="1.1" xmlns:xlink="http://www.w3.org/1999/xlink" width="1364.32" height="1477.56"><svg id="Layer_2" xmlns="http://www.w3.org/2000/svg" viewBox="0 0 1364.32 1477.56"><defs><style>.cls-1{fill:#232c33;}.cls-2{opacity:.3;}.cls-3{fill:#d82133;}</style><clipPath id="SvgjsClipPath1027"><rect width="1000" height="1000" x="0" y="0" rx="350" ry="350"></rect></clipPath></defs><g id="Layer_2-2"><path class="cls-1" d="M1203.37,944.98l-370,156.8c-36.15,15.35-77.6,9.58-108.19-15.02-25.26-20.31-39.75-50.54-39.75-82.94v-78.69c0-8.72-3.25-17.12-9.12-23.56l-40.57-44.5,99.38-62.34c43.21-27.09,69.01-73.72,69.01-124.74,0-19.31-15.65-34.96-34.96-34.96h-188v-100.37c0-19.31-15.65-34.96-34.96-34.96h-3.84c-50.95,0-100.75-15.09-142.98-42.93l171.51-286.48c12.53-20.93,19.14-44.86,19.14-69.23V0h-69.92v101.07c0,11.73-3.18,23.25-9.21,33.32l-187.71,313.55c-8.83,14.75-5.63,33.71,7.54,44.76,51.23,42.91,114.38,69.15,180.52,75.45v101.85c0,19.31,15.65,34.96,34.96,34.96h179.72c-6.23,12.32-15.77,22.92-27.96,30.55l-101.08,63.41c-17.19,10.77-28.62,28.49-31.36,48.58-2.74,20.11,3.52,40.22,17.18,55.2l32.81,35.98v65.14c0,53.7,24.01,103.8,65.86,137.43,31.89,25.64,70.92,38.94,110.41,38.94,23.25,0,46.67-4.61,68.86-14.01l69.71-29.54,128.74,127.73v213.21h69.92v-227.77c0-9.32-3.72-18.25-10.34-24.82l-118.76-117.82,230.73-97.78c81.2-34.39,133.67-113.61,133.67-201.81h-69.92c0,60.07-35.73,114.01-91.03,137.43Z"></path><path class="cls-3" d="M389.82,875.51c-1.47-1.65-2.91-3.33-4.32-5.04-.25-.31-1.2-1.58-1.63-2.14-9.95-13.7-19.48-29.21-24.52-43.72-12.58-36.2-10.17-73.94-2.4-110.99,1.73-8.23-8.2-15.04-14.62-8.51-33.58,34.18-42.67,84.31-35.32,130.48,3.39,21.29,10.89,43.12,22.54,61.31,6.14,9.58,13.1,19.06,20.85,27.4,4.66,5.01,10.51,9.64,16.53,12.82,3.14,1.66,6.52,2.8,9.95,3.61,3.7,1.16,7.39,1.33,11.09.5,4.47-.52,4.93-.63,1.39-.35,11.51-1.37,23.62-9.3,22.69-22.69-.93-13.46-4.53-22.35-13.29-32.85-2.84-3.41-5.98-6.52-8.94-9.84Z"></path><path class="cls-3" d="M257.2,944.36c-18.79-22.44-34.55-47.81-44.48-75.42-12.29-34.19-17.45-68.02-16.17-104.3,1.36-38.7,13.24-73.94,24.39-110.61,1.84-6.04-5.96-10.08-10.27-5.98-45.1,42.94-61.94,114.57-58.56,174.86,3.54,63.14,29.47,123.61,72.89,169.69,19.9,21.12,46.42,46.38,76.73,49.05,25.97,2.29,33.06-13.02,19.28-33.61-16.47-24.61-44.67-40.83-63.8-63.68Z"></path><path class="cls-3" d="M184.05,1081.25c-18.97-11.77-36.28-24.57-52.18-40.36-32.28-32.08-55.2-73.03-69.72-115.97-17.92-53-22.02-110.61-18.53-166.15,3.86-61.37,24.69-119.68,33.5-180.24.77-5.31-6.32-9.47-9.36-3.95-32.14,58.4-48.3,126.25-59.8,191.49-10.86,61.64-12.16,124.81,5.85,185.26,15.03,50.46,43.7,98.16,81.29,135.05,32.34,31.74,90.94,71.61,137.33,47.36,5.82-3.04,5.55-10.38,1.91-14.8-13.04-15.83-32.89-26.91-50.3-37.71Z"></path><path class="cls-3" d="M466.13,775.08c-3.7-3.68-8.07-6.22-13.1-7.64,0,0-.02,0-.03,0-5.26-1.41-10.52-1.41-15.78,0-5.03,1.41-9.39,3.95-13.09,7.63-3.68,3.7-6.22,8.07-7.63,13.09-1.41,5.26-1.41,10.52,0,15.77,0,0,0,.02,0,.03,1.41,5.03,3.96,9.4,7.64,13.1,3.7,3.68,8.07,6.22,13.1,7.64,5.26,1.41,10.52,1.41,15.78,0,5.03-1.41,9.4-3.96,13.1-7.64,3.68-3.7,6.22-8.07,7.64-13.1,1.41-5.26,1.41-10.52,0-15.78-1.41-5.03-3.96-9.4-7.64-13.1Z"></path><g class="cls-2"><polygon class="cls-1" points="1094.07 1249.79 1321.11 922.26 954.76 1088.32 1094.07 1249.79"></polygon></g></g></svg></svg></g></g></svg>